<svg width="24" height="24" viewBox="0 0 24 24" fill="none" xmlns="http://www.w3.org/2000/svg">
<path d="M19.6592 11.4656C19.7987 11.609 19.8761 11.8018 19.8743 12.0019C19.8726 12.2021 19.7919 12.3934 19.6498 12.5344L11.9623 20.2125C10.9777 21.1971 9.64224 21.7503 8.24978 21.7503C6.85732 21.7503 5.5219 21.1971 4.53728 20.2125C3.55266 19.2279 2.99951 17.8924 2.99951 16.5C2.99951 15.1075 3.55266 13.7721 4.53728 12.7875L13.8467 3.35624C14.1911 2.99306 14.6047 2.70252 15.0632 2.50173C15.5217 2.30094 16.0158 2.19397 16.5163 2.18712C17.0168 2.18027 17.5135 2.27369 17.9774 2.46186C18.4412 2.65003 18.8626 2.92916 19.2169 3.28277C19.5711 3.63639 19.851 4.05735 20.04 4.52083C20.229 4.98431 20.3233 5.48093 20.3173 5.98143C20.3113 6.48193 20.2052 6.97617 20.0053 7.43502C19.8053 7.89386 19.5155 8.30803 19.1529 8.65311L9.84353 18.0844C9.63544 18.2957 9.38732 18.4633 9.11367 18.5776C8.84002 18.6919 8.54634 18.7505 8.24978 18.75C7.80397 18.7511 7.36788 18.6197 6.99685 18.3726C6.62582 18.1254 6.33658 17.7736 6.16583 17.3618C5.99508 16.95 5.95051 16.4967 6.03779 16.0595C6.12506 15.6223 6.34024 15.2209 6.65603 14.9062L14.4654 6.97499C14.533 6.89919 14.6152 6.8379 14.7072 6.79484C14.7992 6.75179 14.8989 6.72785 15.0004 6.7245C15.1019 6.72114 15.203 6.73843 15.2977 6.77531C15.3923 6.8122 15.4784 6.86792 15.5508 6.93908C15.6233 7.01025 15.6805 7.09539 15.7191 7.18933C15.7576 7.28328 15.7767 7.38407 15.7751 7.48561C15.7736 7.58715 15.7514 7.68731 15.71 7.78003C15.6686 7.87274 15.6087 7.95608 15.5342 8.02499L7.72478 15.9656C7.65369 16.0353 7.59718 16.1184 7.55855 16.2102C7.51992 16.3019 7.49994 16.4004 7.49978 16.5C7.50253 16.6475 7.54822 16.7911 7.63125 16.9131C7.71428 17.0351 7.83106 17.1303 7.96732 17.1869C8.10357 17.2436 8.25339 17.2594 8.39846 17.2323C8.54353 17.2052 8.67755 17.1364 8.78415 17.0344L18.0842 7.59374C18.2954 7.38565 18.4631 7.13753 18.5774 6.86388C18.6917 6.59023 18.7503 6.29654 18.7498 5.99999C18.7509 5.55418 18.6195 5.11809 18.3724 4.74706C18.1252 4.37603 17.7734 4.08679 17.3616 3.91604C16.9498 3.74528 16.4965 3.70072 16.0593 3.78799C15.6221 3.87527 15.2207 4.09045 14.906 4.40624L5.60603 13.8469C5.24285 14.1913 4.95231 14.605 4.75152 15.0634C4.55073 15.5219 4.44376 16.016 4.43691 16.5165C4.43006 17.017 4.52348 17.5138 4.71165 17.9776C4.89983 18.4414 5.17895 18.8628 5.53257 19.2171C5.88618 19.5713 6.30714 19.8512 6.77062 20.0402C7.2341 20.2292 7.73073 20.3235 8.23122 20.3175C8.73172 20.3115 9.22596 20.2054 9.68481 20.0055C10.1437 19.8055 10.5578 19.5157 10.9029 19.1531L18.5904 11.4656C18.7326 11.3248 18.9246 11.2458 19.1248 11.2458C19.3249 11.2458 19.517 11.3248 19.6592 11.4656Z" fill="#999999"/>
</svg>
